<?xml version="1.0" standalone="no"?>
<!DOCTYPE svg PUBLIC "-//W3C//DTD SVG 20010904//EN"
 "http://www.w3.org/TR/2001/REC-SVG-20010904/DTD/svg10.dtd">
<svg version="1.0" xmlns="http://www.w3.org/2000/svg"
 width="512.000000pt" height="512.000000pt" viewBox="0 0 512.000000 512.000000"
 preserveAspectRatio="xMidYMid meet">
<metadata>
Created by potrace 1.11, written by Peter Selinger 2001-2013
</metadata>
<g transform="translate(0.000000,512.000000) scale(0.100000,-0.100000)"
fill="#000000" stroke="none">
<path d="M2409 5106 c-2 -2 -40 -7 -84 -10 -96 -8 -258 -33 -300 -46 -16 -5
-45 -12 -62 -15 -58 -9 -266 -75 -368 -117 -188 -75 -484 -245 -605 -347 -14
-11 -29 -24 -35 -28 -69 -53 -222 -198 -300 -284 -224 -247 -404 -559 -512
-889 -19 -58 -36 -113 -38 -123 -2 -10 -7 -27 -10 -37 -3 -10 -8 -29 -11 -42
-3 -13 -7 -32 -9 -43 -44 -198 -59 -340 -59 -570 0 -93 4 -206 8 -250 54 -582
309 -1127 716 -1535 122 -122 138 -137 230 -211 148 -118 363 -249 525 -319
28 -12 64 -28 80 -36 30 -13 161 -63 170 -64 3 0 10 -2 17 -4 126 -37 166 -48
238 -64 74 -17 111 -24 205 -38 133 -19 462 -25 619 -11 49 4 92 10 95 12 3 1
30 6 60 10 54 7 72 10 114 21 12 3 33 8 47 11 63 13 245 69 337 103 290 109
603 306 833 524 94 90 204 212 270 301 25 33 47 62 50 65 15 13 108 163 159
254 48 87 88 171 146 311 11 26 54 150 62 180 19 71 64 255 68 284 3 21 10 52
15 70 5 19 5 29 -1 26 -5 -4 -5 4 1 19 21 56 31 375 17 546 -11 135 -20 195
-43 305 -9 44 -17 88 -17 98 -1 9 -5 17 -10 17 -4 0 -6 4 -2 9 3 5 1 20 -4 33
-5 13 -24 70 -42 128 -89 288 -247 576 -458 835 -58 70 -235 253 -302 310
-186 159 -437 314 -679 418 -41 18 -208 77 -230 82 -8 2 -15 4 -15 5 0 2 -5 3
-75 20 -122 31 -271 60 -335 66 -75 8 -110 12 -110 14 0 4 -363 9 -366 6z
m271 -1331 c36 -3 72 -7 80 -8 376 -77 661 -277 851 -597 118 -198 170 -413
164 -665 -7 -253 -94 -489 -261 -704 -46 -59 -189 -192 -257 -239 -110 -76
-322 -175 -402 -188 -11 -1 -56 -9 -100 -17 -80 -15 -325 -17 -390 -3 -90 19
-171 40 -180 46 -5 4 -23 10 -40 14 -40 10 -235 107 -235 118 0 4 -5 8 -11 8
-17 0 -128 89 -200 160 -127 126 -207 244 -275 407 -24 57 -41 103 -39 103 3
0 0 11 -5 26 -6 14 -12 37 -15 52 -3 15 -7 38 -10 52 -26 117 -24 308 6 452
111 539 572 949 1109 985 47 3 86 7 88 8 2 2 15 2 30 0 15 -2 56 -6 92 -10z"/>
<path d="M2517 2958 c-6 -4 -15 -5 -19 -2 -4 3 -29 -2 -55 -10 -135 -41 -230
-134 -269 -265 -65 -220 49 -445 258 -505 53 -16 178 -26 178 -15 0 3 10 5 23
4 12 -1 27 0 32 4 6 3 18 7 28 8 27 4 105 48 136 76 82 75 132 184 133 292 1
15 -10 96 -17 129 -19 91 -106 200 -198 244 -76 37 -200 59 -230 40z"/>
</g>
</svg>
